<svg width="103" height="25" viewBox="0 0 103 25" fill="none" xmlns="http://www.w3.org/2000/svg">
<path d="M40.7959 8.912C42.2572 8.912 43.3932 9.216 44.2039 9.824C45.0145 10.432 45.4199 11.3333 45.4199 12.528C45.4199 13.776 45.0199 14.72 44.2199 15.36C43.4305 15.9893 42.3692 16.304 41.0359 16.304H39.8359V20H37.2119V8.912H40.7959ZM40.8119 14.416C41.4305 14.416 41.8999 14.272 42.2199 13.984C42.5505 13.6853 42.7159 13.2 42.7159 12.528C42.7159 11.3653 42.0652 10.784 40.7639 10.784H39.8359V14.416H40.8119ZM53.6056 8.912L53.3336 10.784H49.4296V13.44H52.8376V15.28H49.4296V18.112H53.6056V20H46.8056V8.912H53.6056ZM58.6393 8.64C59.4713 8.64 60.1913 8.75733 60.7993 8.992C61.4179 9.22667 61.9779 9.584 62.4792 10.064L61.2633 11.488C60.5059 10.8693 59.6953 10.56 58.8313 10.56C58.3726 10.56 58.0099 10.656 57.7433 10.848C57.4766 11.0293 57.3433 11.296 57.3433 11.648C57.3433 11.8933 57.4019 12.096 57.5193 12.256C57.6366 12.4053 57.8446 12.5493 58.1432 12.688C58.4419 12.8267 58.8899 12.992 59.4873 13.184C60.6179 13.5467 61.4499 13.9947 61.9833 14.528C62.5166 15.0507 62.7833 15.7973 62.7833 16.768C62.7833 17.4613 62.6073 18.0747 62.2552 18.608C61.9033 19.1307 61.3966 19.5413 60.7353 19.84C60.0739 20.128 59.2899 20.272 58.3833 20.272C57.4766 20.272 56.6713 20.128 55.9673 19.84C55.2739 19.552 54.6766 19.168 54.1753 18.688L55.5033 17.232C55.9299 17.5947 56.3673 17.8667 56.8153 18.048C57.2739 18.2293 57.7699 18.32 58.3033 18.32C58.8473 18.32 59.2739 18.2027 59.5833 17.968C59.9033 17.7227 60.0633 17.3867 60.0633 16.96C60.0633 16.6827 60.0046 16.4533 59.8873 16.272C59.7699 16.08 59.5673 15.9093 59.2793 15.76C58.9913 15.6107 58.5753 15.4507 58.0312 15.28C56.8046 14.9067 55.9299 14.448 55.4073 13.904C54.8953 13.36 54.6393 12.672 54.6393 11.84C54.6393 11.2 54.8099 10.64 55.1513 10.16C55.4926 9.66933 55.9673 9.296 56.5753 9.04C57.1833 8.77333 57.8713 8.64 58.6393 8.64ZM69.9894 20L69.4134 17.616H66.1814L65.6214 20H62.9014L66.2454 8.912H69.4294L72.7734 20H69.9894ZM66.6294 15.712H68.9654L67.7974 10.816L66.6294 15.712ZM73.5869 20V8.912H80.1949L79.9229 10.784H76.2109V13.728H79.4429V15.6H76.2109V20H73.5869ZM84.0078 8.912V17.92H88.3278L88.0558 20H81.3838V8.912H84.0078ZM92.2109 8.912V20H89.5869V8.912H92.2109ZM97.8584 8.912C99.3197 8.912 100.456 9.216 101.266 9.824C102.077 10.432 102.482 11.3333 102.482 12.528C102.482 13.776 102.082 14.72 101.282 15.36C100.493 15.9893 99.4317 16.304 98.0984 16.304H96.8984V20H94.2744V8.912H97.8584ZM97.8744 14.416C98.493 14.416 98.9624 14.272 99.2824 13.984C99.613 13.6853 99.7784 13.2 99.7784 12.528C99.7784 11.3653 99.1277 10.784 97.8264 10.784H96.8984V14.416H97.8744Z" fill="white"/>
<path d="M2.5 6C2.5 6 5 23.5 4.5 23.5C4 23.5 14.5 4.5 14.5 4.5C14.5 4.5 25 23.5 24.5 23.5C24 23.5 26.5 6 26.5 6C26.5 6 15 24 14.5 23.5C14 23 2.5 6 2.5 6Z" stroke="#FD7344" stroke-width="2"/>
<circle cx="2" cy="5" r="2" fill="#FD7344"/>
<circle cx="27" cy="5" r="2" fill="#FD7344"/>
<circle cx="14.5" cy="2.5" r="2.5" fill="#FD7344"/>
</svg>
